<svg id="SvgjsSvg1001" width="288" height="288" xmlns="http://www.w3.org/2000/svg" version="1.1" xmlns:xlink="http://www.w3.org/1999/xlink" xmlns:svgjs="http://svgjs.com/svgjs"><defs id="SvgjsDefs1002"></defs><g id="SvgjsG1008"><svg xmlns="http://www.w3.org/2000/svg" preserveAspectRatio="xMaxYMax slice" viewBox="0 0 1000 545.455" width="288" height="288"><g transform="scale(1.07585)" fill="#454a97" class="color000 svgShape"><rect width="929.5" height="507" fill="#454a97" class="color000 svgShape"></rect><rect width="84.5" height="84.5" fill="#454a97" class="color000 svgShape"></rect><rect width="42.25" height="42.25" fill="#454a97" class="color000 svgShape"></rect><polygon fill="#c0c0c0" points="42.25 0 42.25 42.25 0 42.25" class="colorf1b378 svgShape"></polygon><rect width="42.25" height="42.25" x="42.25" fill="#454a97" class="color000 svgShape"></rect><polygon points="42.25 0 84.5 42.25 42.25 42.25" fill="#454a97" class="color000 svgShape"></polygon><rect width="42.25" height="42.25" y="42.25" fill="#454a97" class="color000 svgShape"></rect><polygon fill="#c0c0c0" points="0 42.25 42.25 42.25 0 84.5" class="colorf1b378 svgShape"></polygon><rect width="42.25" height="42.25" x="42.25" y="42.25" fill="#454a97" class="color000 svgShape"></rect><polygon fill="#c0c0c0" points="42.25 42.25 84.5 42.25 84.5 84.5" class="colorf1b378 svgShape"></polygon><rect width="84.5" height="84.5" x="84.5" fill="#454a97" class="color000 svgShape"></rect><path d="M 84.5 84.5 A 84.5 84.5 0 0 1  169 0 L 84.5 84.5 A 84.5 84.5 0 0 0 169 0" fill="#454a97" class="color000 svgShape"></path><rect width="84.5" height="84.5" x="169" fill="#454a97" class="color000 svgShape"></rect><path fill="#c0c0c0" d="M 169 84.5 A 84.5 84.5 0 0 1  253.5 0 L 169 84.5 A 84.5 84.5 0 0 0 253.5 0" class="colorf1b378 svgShape"></path><rect width="84.5" height="84.5" x="253.5" fill="#454a97" class="color000 svgShape"></rect><rect width="84.5" height="84.5" x="253.5" fill="#454a97" class="color000 svgShape"></rect><rect width="84.5" height="84.5" x="338" fill="#454a97" class="color000 svgShape"></rect><rect width="42.25" height="42.25" x="338" fill="#454a97" class="color000 svgShape"></rect><path d="M 338 42.25 A 42.25 42.25 0 0 0 380.25 0 L 338 0" fill="#454a97" class="color000 svgShape"></path><rect width="42.25" height="42.25" x="380.25" fill="#454a97" class="color000 svgShape"></rect><path fill="#c0c0c0" d="M 380.25 0 A 42.25 42.25 0 0 0 422.5 42.25 L 422.5 0" class="colorf1b378 svgShape"></path><rect width="42.25" height="42.25" x="338" y="42.25" fill="#c0c0c0" class="colorf1b378 svgShape"></rect><path fill="#c0c0c0" d="M 338 42.25 A 42.25 42.25 0 0 1 380.25 84.5 L 338 84.5" class="colorf1b378 svgShape"></path><rect width="42.25" height="42.25" x="380.25" y="42.25" fill="#c0c0c0" class="colorf1b378 svgShape"></rect><path fill="#c0c0c0" d="M 380.25 84.5 A 42.25 42.25 0 0 1  422.5 42.25 L 422.5 84.5" class="colorf1b378 svgShape"></path><rect width="84.5" height="84.5" x="422.5" fill="#c0c0c0" class="colorf1b378 svgShape"></rect><path d="M 422.5 0 A 84.5 84.5 0 0 1  507 84.5 L 422.5 0 A 84.5 84.5 0 0 0 507 84.5" fill="#454a97" class="color000 svgShape"></path><rect width="84.5" height="84.5" x="507" fill="#454a97" class="color000 svgShape"></rect><path d="M 507 84.5 A 84.5 84.5 0 0 1  591.5 0 L 507 84.5 A 84.5 84.5 0 0 0 591.5 0" fill="#454a97" class="color000 svgShape"></path><rect width="84.5" height="84.5" x="591.5" fill="#454a97" class="color000 svgShape"></rect><rect width="42.25" height="42.25" x="591.5" fill="#c0c0c0" class="colorf1b378 svgShape"></rect><path fill="#c0c0c0" d="M 591.5 0 A 42.25 42.25 0 0 0 633.75 42.25 L 633.75 0" class="colorf1b378 svgShape"></path><rect width="42.25" height="42.25" x="633.75" fill="#c0c0c0" class="colorf1b378 svgShape"></rect><path d="M 633.75 42.25 A 42.25 42.25 0 0 0 676 0 L 633.75 0" fill="#454a97" class="color000 svgShape"></path><rect width="42.25" height="42.25" x="591.5" y="42.25" fill="#454a97" class="color000 svgShape"></rect><path fill="#c0c0c0" d="M 591.5 84.5 A 42.25 42.25 0 0 1  633.75 42.25 L 633.75 84.5" class="colorf1b378 svgShape"></path><rect width="42.25" height="42.25" x="633.75" y="42.25" fill="#454a97" class="color000 svgShape"></rect><path fill="#c0c0c0" d="M 633.75 42.25 A 42.25 42.25 0 0 1 676 84.5 L 633.75 84.5" class="colorf1b378 svgShape"></path><rect width="84.5" height="84.5" x="676" fill="#454a97" class="color000 svgShape"></rect><rect width="84.5" height="84.5" x="676" fill="#454a97" class="color000 svgShape"></rect><rect width="84.5" height="84.5" x="760.5" fill="#454a97" class="color000 svgShape"></rect><path d="M 760.5 84.5 A 84.5 84.5 0 0 0 845 0 L 760.5 0" fill="#454a97" class="color000 svgShape"></path><rect width="84.5" height="84.5" x="845" fill="#454a97" class="color000 svgShape"></rect><rect width="42.25" height="42.25" x="845" fill="#454a97" class="color000 svgShape"></rect><path fill="#c0c0c0" d="M 845 0 A 42.25 42.25 0 0 0 887.25 42.25 L 887.25 0" class="colorf1b378 svgShape"></path><rect width="42.25" height="42.25" x="887.25" fill="#c0c0c0" class="colorf1b378 svgShape"></rect><path d="M 887.25 42.25 A 42.25 42.25 0 0 0 929.5 0 L 887.25 0" fill="#454a97" class="color000 svgShape"></path><rect width="42.25" height="42.25" x="845" y="42.25" fill="#454a97" class="color000 svgShape"></rect><path fill="#c0c0c0" d="M 845 84.5 A 42.25 42.25 0 0 1  887.25 42.25 L 887.25 84.5" class="colorf1b378 svgShape"></path><rect width="42.25" height="42.25" x="887.25" y="42.25" fill="#c0c0c0" class="colorf1b378 svgShape"></rect><path d="M 887.25 42.25 A 42.25 42.25 0 0 1 929.5 84.5 L 887.25 84.5" fill="#454a97" class="color000 svgShape"></path><rect width="84.5" height="84.5" y="84.5" fill="#454a97" class="color000 svgShape"></rect><rect width="42.25" height="42.25" y="84.5" fill="#c0c0c0" class="colorf1b378 svgShape"></rect><path d="M 0 126.75 A 42.25 42.25 0 0 0 42.25 84.5 L 0 84.5" fill="#454a97" class="color000 svgShape"></path><rect width="42.25" height="42.25" x="42.25" y="84.5" fill="#454a97" class="color000 svgShape"></rect><path d="M 42.25 84.5 A 42.25 42.25 0 0 0 84.5 126.75 L 84.5 84.5" fill="#454a97" class="color000 svgShape"></path><rect width="42.25" height="42.25" y="126.75" fill="#454a97" class="color000 svgShape"></rect><path fill="#c0c0c0" d="M 0 126.75 A 42.25 42.25 0 0 1 42.25 169 L 0 169" class="colorf1b378 svgShape"></path><rect width="42.25" height="42.25" x="42.25" y="126.75" fill="#c0c0c0" class="colorf1b378 svgShape"></rect><path fill="#c0c0c0" d="M 42.25 169 A 42.25 42.25 0 0 1  84.5 126.75 L 84.5 169" class="colorf1b378 svgShape"></path><rect width="84.5" height="84.5" x="84.5" y="84.5" fill="#c0c0c0" class="colorf1b378 svgShape"></rect><polygon points="84.5 84.5 169 84.5 169 169" fill="#454a97" class="color000 svgShape"></polygon><rect width="84.5" height="84.5" x="169" y="84.5" fill="#c0c0c0" class="colorf1b378 svgShape"></rect><rect width="84.5" height="84.5" x="169" y="84.5" fill="#454a97" class="color000 svgShape"></rect><rect width="84.5" height="84.5" x="253.5" y="84.5" fill="#c0c0c0" class="colorf1b378 svgShape"></rect><polygon points="338 84.5 338 169 253.5 169" fill="#454a97" class="color000 svgShape"></polygon><rect width="84.5" height="84.5" x="338" y="84.5" fill="#454a97" class="color000 svgShape"></rect><path d="M 338 169 A 84.5 84.5 0 0 1  422.5 84.5 L 338 169 A 84.5 84.5 0 0 0 422.5 84.5" fill="#454a97" class="color000 svgShape"></path><rect width="84.5" height="84.5" x="422.5" y="84.5" fill="#454a97" class="color000 svgShape"></rect><polygon points="422.5 84.5 507 84.5 422.5 169" fill="#454a97" class="color000 svgShape"></polygon><rect width="84.5" height="84.5" x="507" y="84.5" fill="#454a97" class="color000 svgShape"></rect><rect width="42.25" height="42.25" x="507" y="84.5" fill="#c0c0c0" class="colorf1b378 svgShape"></rect><path fill="#c0c0c0" d="M 507 126.75 A 42.25 42.25 0 0 0 549.25 84.5 L 507 84.5" class="colorf1b378 svgShape"></path><rect width="42.25" height="42.25" x="549.25" y="84.5" fill="#454a97" class="color000 svgShape"></rect><path fill="#c0c0c0" d="M 549.25 84.5 A 42.25 42.25 0 0 0 591.5 126.75 L 591.5 84.5" class="colorf1b378 svgShape"></path><rect width="42.25" height="42.25" x="507" y="126.75" fill="#454a97" class="color000 svgShape"></rect><path fill="#c0c0c0" d="M 507 126.75 A 42.25 42.25 0 0 1 549.25 169 L 507 169" class="colorf1b378 svgShape"></path><rect width="42.25" height="42.25" x="549.25" y="126.75" fill="#454a97" class="color000 svgShape"></rect><path d="M 549.25 169 A 42.25 42.25 0 0 1  591.5 126.75 L 591.5 169" fill="#454a97" class="color000 svgShape"></path><rect width="84.5" height="84.5" x="591.5" y="84.5" fill="#454a97" class="color000 svgShape"></rect><polygon points="591.5 84.5 676 84.5 676 169" fill="#454a97" class="color000 svgShape"></polygon><rect width="84.5" height="84.5" x="676" y="84.5" fill="#c0c0c0" class="colorf1b378 svgShape"></rect><path d="M 676 169 A 84.5 84.5 0 0 0 760.5 84.5 L 676 84.5" fill="#454a97" class="color000 svgShape"></path><rect width="84.5" height="84.5" x="760.5" y="84.5" fill="#454a97" class="color000 svgShape"></rect><polygon points="760.5 84.5 845 84.5 845 169" fill="#454a97" class="color000 svgShape"></polygon><rect width="84.5" height="84.5" x="845" y="84.5" fill="#454a97" class="color000 svgShape"></rect><rect width="42.25" height="42.25" x="845" y="84.5" fill="#c0c0c0" class="colorf1b378 svgShape"></rect><polygon points="887.25 84.5 887.25 126.75 845 126.75" fill="#454a97" class="color000 svgShape"></polygon><rect width="42.25" height="42.25" x="887.25" y="84.5" fill="#c0c0c0" class="colorf1b378 svgShape"></rect><polygon fill="#c0c0c0" points="887.25 84.5 929.5 84.5 887.25 126.75" class="colorf1b378 svgShape"></polygon><rect width="42.25" height="42.25" x="845" y="126.75" fill="#c0c0c0" class="colorf1b378 svgShape"></rect><polygon fill="#c0c0c0" points="845 126.75 887.25 126.75 887.25 169" class="colorf1b378 svgShape"></polygon><rect width="42.25" height="42.25" x="887.25" y="126.75" fill="#454a97" class="color000 svgShape"></rect><polygon fill="#c0c0c0" points="887.25 126.75 929.5 169 887.25 169" class="colorf1b378 svgShape"></polygon><rect width="84.5" height="84.5" y="169" fill="#454a97" class="color000 svgShape"></rect><rect width="84.5" height="84.5" y="169" fill="#454a97" class="color000 svgShape"></rect><rect width="84.5" height="84.5" x="84.5" y="169" fill="#454a97" class="color000 svgShape"></rect><path d="M 84.5 253.5 A 84.5 84.5 0 0 0 169 169 L 84.5 169" fill="#454a97" class="color000 svgShape"></path><rect width="84.5" height="84.5" x="169" y="169" fill="#454a97" class="color000 svgShape"></rect><rect width="42.25" height="42.25" x="169" y="169" fill="#c0c0c0" class="colorf1b378 svgShape"></rect><path d="M 169 169 A 42.25 42.25 0 0 1 211.25 211.25 L 169 211.25" fill="#454a97" class="color000 svgShape"></path><rect width="42.25" height="42.25" x="211.25" y="169" fill="#c0c0c0" class="colorf1b378 svgShape"></rect><path d="M 211.25 211.25 A 42.25 42.25 0 0 1  253.5 169 L 253.5 211.25" fill="#454a97" class="color000 svgShape"></path><rect width="42.25" height="42.25" x="169" y="211.25" fill="#454a97" class="color000 svgShape"></rect><path fill="#c0c0c0" d="M 169 253.5 A 42.25 42.25 0 0 0 211.25 211.25 L 169 211.25" class="colorf1b378 svgShape"></path><rect width="42.25" height="42.25" x="211.25" y="211.25" fill="#454a97" class="color000 svgShape"></rect><path fill="#c0c0c0" d="M 211.25 211.25 A 42.25 42.25 0 0 0 253.5 253.5 L 253.5 211.25" class="colorf1b378 svgShape"></path><rect width="84.5" height="84.5" x="253.5" y="169" fill="#454a97" class="color000 svgShape"></rect><rect width="42.25" height="42.25" x="253.5" y="169" fill="#c0c0c0" class="colorf1b378 svgShape"></rect><polygon fill="#c0c0c0" points="295.75 169 295.75 211.25 253.5 211.25" class="colorf1b378 svgShape"></polygon><rect width="42.25" height="42.25" x="295.75" y="169" fill="#454a97" class="color000 svgShape"></rect><polygon fill="#c0c0c0" points="295.75 169 338 211.25 295.75 211.25" class="colorf1b378 svgShape"></polygon><rect width="42.25" height="42.25" x="253.5" y="211.25" fill="#454a97" class="color000 svgShape"></rect><polygon fill="#c0c0c0" points="253.5 211.25 295.75 211.25 253.5 253.5" class="colorf1b378 svgShape"></polygon><rect width="42.25" height="42.25" x="295.75" y="211.25" fill="#c0c0c0" class="colorf1b378 svgShape"></rect><polygon points="295.75 211.25 338 211.25 338 253.5" fill="#454a97" class="color000 svgShape"></polygon><rect width="84.5" height="84.5" x="338" y="169" fill="#c0c0c0" class="colorf1b378 svgShape"></rect><path fill="#c0c0c0" d="M 338 253.5 A 84.5 84.5 0 0 1  422.5 169 L 422.5 253.5" class="colorf1b378 svgShape"></path><rect width="84.5" height="84.5" x="422.5" y="169" fill="#454a97" class="color000 svgShape"></rect><rect width="42.25" height="42.25" x="422.5" y="169" fill="#c0c0c0" class="colorf1b378 svgShape"></rect><path fill="#c0c0c0" d="M 422.5 169 A 42.25 42.25 0 0 0 464.75 211.25 L 464.75 169" class="colorf1b378 svgShape"></path><rect width="42.25" height="42.25" x="464.75" y="169" fill="#454a97" class="color000 svgShape"></rect><path d="M 464.75 211.25 A 42.25 42.25 0 0 0 507 169 L 464.75 169" fill="#454a97" class="color000 svgShape"></path><rect width="42.25" height="42.25" x="422.5" y="211.25" fill="#c0c0c0" class="colorf1b378 svgShape"></rect><path d="M 422.5 253.5 A 42.25 42.25 0 0 1  464.75 211.25 L 464.75 253.5" fill="#454a97" class="color000 svgShape"></path><rect width="42.25" height="42.25" x="464.75" y="211.25" fill="#c0c0c0" class="colorf1b378 svgShape"></rect><path fill="#c0c0c0" d="M 464.75 211.25 A 42.25 42.25 0 0 1 507 253.5 L 464.75 253.5" class="colorf1b378 svgShape"></path><rect width="84.5" height="84.5" x="507" y="169" fill="#c0c0c0" class="colorf1b378 svgShape"></rect><path fill="#c0c0c0" d="M 507 253.5 A 84.5 84.5 0 0 1  591.5 169 L 591.5 253.5" class="colorf1b378 svgShape"></path><rect width="84.5" height="84.5" x="591.5" y="169" fill="#c0c0c0" class="colorf1b378 svgShape"></rect><path d="M 591.5 253.5 A 84.5 84.5 0 0 1  676 169 L 676 253.5" fill="#454a97" class="color000 svgShape"></path><rect width="84.5" height="84.5" x="676" y="169" fill="#454a97" class="color000 svgShape"></rect><rect width="84.5" height="84.5" x="676" y="169" fill="#c0c0c0" class="colorf1b378 svgShape"></rect><rect width="84.5" height="84.5" x="760.5" y="169" fill="#454a97" class="color000 svgShape"></rect><rect width="42.25" height="42.25" x="760.5" y="169" fill="#454a97" class="color000 svgShape"></rect><path d="M 760.5 211.25 A 42.25 42.25 0 0 1  802.75 169 L 802.75 211.25" fill="#454a97" class="color000 svgShape"></path><rect width="42.25" height="42.25" x="802.75" y="169" fill="#c0c0c0" class="colorf1b378 svgShape"></rect><path d="M 802.75 169 A 42.25 42.25 0 0 1 845 211.25 L 802.75 211.25" fill="#454a97" class="color000 svgShape"></path><rect width="42.25" height="42.25" x="760.5" y="211.25" fill="#454a97" class="color000 svgShape"></rect><path fill="#c0c0c0" d="M 760.5 211.25 A 42.25 42.25 0 0 0 802.75 253.5 L 802.75 211.25" class="colorf1b378 svgShape"></path><rect width="42.25" height="42.25" x="802.75" y="211.25" fill="#454a97" class="color000 svgShape"></rect><path fill="#c0c0c0" d="M 802.75 253.5 A 42.25 42.25 0 0 0 845 211.25 L 802.75 211.25" class="colorf1b378 svgShape"></path><rect width="84.5" height="84.5" x="845" y="169" fill="#c0c0c0" class="colorf1b378 svgShape"></rect><polygon points="929.5 169 929.5 253.5 845 253.5" fill="#454a97" class="color000 svgShape"></polygon><rect width="84.5" height="84.5" y="253.5" fill="#454a97" class="color000 svgShape"></rect><rect width="84.5" height="84.5" y="253.5" fill="#c0c0c0" class="colorf1b378 svgShape"></rect><rect width="84.5" height="84.5" x="84.5" y="253.5" fill="#454a97" class="color000 svgShape"></rect><polygon fill="#c0c0c0" points="84.5 253.5 169 253.5 84.5 338" class="colorf1b378 svgShape"></polygon><rect width="84.5" height="84.5" x="169" y="253.5" fill="#454a97" class="color000 svgShape"></rect><rect width="42.25" height="42.25" x="169" y="253.5" fill="#454a97" class="color000 svgShape"></rect><path fill="#c0c0c0" d="M 169 295.75 A 42.25 42.25 0 0 1  211.25 253.5 L 211.25 295.75" class="colorf1b378 svgShape"></path><rect width="42.25" height="42.25" x="211.25" y="253.5" fill="#454a97" class="color000 svgShape"></rect><path d="M 211.25 253.5 A 42.25 42.25 0 0 1 253.5 295.75 L 211.25 295.75" fill="#454a97" class="color000 svgShape"></path><rect width="42.25" height="42.25" x="169" y="295.75" fill="#454a97" class="color000 svgShape"></rect><path d="M 169 295.75 A 42.25 42.25 0 0 0 211.25 338 L 211.25 295.75" fill="#454a97" class="color000 svgShape"></path><rect width="42.25" height="42.25" x="211.25" y="295.75" fill="#c0c0c0" class="colorf1b378 svgShape"></rect><path d="M 211.25 338 A 42.25 42.25 0 0 0 253.5 295.75 L 211.25 295.75" fill="#454a97" class="color000 svgShape"></path><rect width="84.5" height="84.5" x="253.5" y="253.5" fill="#454a97" class="color000 svgShape"></rect><rect width="42.25" height="42.25" x="253.5" y="253.5" fill="#454a97" class="color000 svgShape"></rect><polygon fill="#c0c0c0" points="295.75 253.5 295.75 295.75 253.5 295.75" class="colorf1b378 svgShape"></polygon><rect width="42.25" height="42.25" x="295.75" y="253.5" fill="#454a97" class="color000 svgShape"></rect><polygon fill="#c0c0c0" points="295.75 253.5 338 295.75 295.75 295.75" class="colorf1b378 svgShape"></polygon><rect width="42.25" height="42.25" x="253.5" y="295.75" fill="#c0c0c0" class="colorf1b378 svgShape"></rect><polygon fill="#c0c0c0" points="253.5 295.75 295.75 295.75 295.75 338" class="colorf1b378 svgShape"></polygon><rect width="42.25" height="42.25" x="295.75" y="295.75" fill="#454a97" class="color000 svgShape"></rect><polygon fill="#c0c0c0" points="295.75 295.75 338 295.75 295.75 338" class="colorf1b378 svgShape"></polygon><rect width="84.5" height="84.5" x="338" y="253.5" fill="#c0c0c0" class="colorf1b378 svgShape"></rect><path d="M 338 253.5 A 84.5 84.5 0 0 1 422.5 338 L 338 338" fill="#454a97" class="color000 svgShape"></path><rect width="84.5" height="84.5" x="422.5" y="253.5" fill="#454a97" class="color000 svgShape"></rect><rect width="42.25" height="42.25" x="422.5" y="253.5" fill="#454a97" class="color000 svgShape"></rect><circle cx="443.625" cy="274.625" r="21.125" fill="#c0c0c0" class="colorf1b378 svgShape"></circle><rect width="42.25" height="42.25" x="464.75" y="253.5" fill="#c0c0c0" class="colorf1b378 svgShape"></rect><rect width="42.25" height="42.25" x="464.75" y="253.5" fill="#454a97" class="color000 svgShape"></rect><rect width="42.25" height="42.25" x="422.5" y="295.75" fill="#c0c0c0" class="colorf1b378 svgShape"></rect><circle cx="443.625" cy="316.875" r="21.125" fill="#c0c0c0" class="colorf1b378 svgShape"></circle><rect width="42.25" height="42.25" x="464.75" y="295.75" fill="#454a97" class="color000 svgShape"></rect><rect width="42.25" height="42.25" x="464.75" y="295.75" fill="#c0c0c0" class="colorf1b378 svgShape"></rect><rect width="84.5" height="84.5" x="507" y="253.5" fill="#c0c0c0" class="colorf1b378 svgShape"></rect><path d="M 507 338 A 84.5 84.5 0 0 0 591.5 253.5 L 507 253.5" fill="#454a97" class="color000 svgShape"></path><rect width="84.5" height="84.5" x="591.5" y="253.5" fill="#454a97" class="color000 svgShape"></rect><rect width="84.5" height="84.5" x="591.5" y="253.5" fill="#c0c0c0" class="colorf1b378 svgShape"></rect><rect width="84.5" height="84.5" x="676" y="253.5" fill="#c0c0c0" class="colorf1b378 svgShape"></rect><rect width="84.5" height="84.5" x="676" y="253.5" fill="#c0c0c0" class="colorf1b378 svgShape"></rect><rect width="84.5" height="84.5" x="760.5" y="253.5" fill="#454a97" class="color000 svgShape"></rect><polygon fill="#c0c0c0" points="760.5 253.5 845 253.5 845 338" class="colorf1b378 svgShape"></polygon><rect width="84.5" height="84.5" x="845" y="253.5" fill="#454a97" class="color000 svgShape"></rect><rect width="42.25" height="42.25" x="845" y="253.5" fill="#c0c0c0" class="colorf1b378 svgShape"></rect><path d="M 845 253.5 A 42.25 42.25 0 0 1 887.25 295.75 L 845 295.75" fill="#454a97" class="color000 svgShape"></path><rect width="42.25" height="42.25" x="887.25" y="253.5" fill="#454a97" class="color000 svgShape"></rect><path d="M 887.25 295.75 A 42.25 42.25 0 0 1  929.5 253.5 L 929.5 295.75" fill="#454a97" class="color000 svgShape"></path><rect width="42.25" height="42.25" x="845" y="295.75" fill="#c0c0c0" class="colorf1b378 svgShape"></rect><path d="M 845 338 A 42.25 42.25 0 0 0 887.25 295.75 L 845 295.75" fill="#454a97" class="color000 svgShape"></path><rect width="42.25" height="42.25" x="887.25" y="295.75" fill="#c0c0c0" class="colorf1b378 svgShape"></rect><path d="M 887.25 295.75 A 42.25 42.25 0 0 0 929.5 338 L 929.5 295.75" fill="#454a97" class="color000 svgShape"></path><rect width="84.5" height="84.5" y="338" fill="#454a97" class="color000 svgShape"></rect><rect width="84.5" height="84.5" y="338" fill="#c0c0c0" class="colorf1b378 svgShape"></rect><rect width="84.5" height="84.5" x="84.5" y="338" fill="#c0c0c0" class="colorf1b378 svgShape"></rect><polygon fill="#c0c0c0" points="84.5 338 169 422.5 84.5 422.5" class="colorf1b378 svgShape"></polygon><rect width="84.5" height="84.5" x="169" y="338" fill="#454a97" class="color000 svgShape"></rect><rect width="42.25" height="42.25" x="169" y="338" fill="#454a97" class="color000 svgShape"></rect><path d="M 169 380.25 A 42.25 42.25 0 0 1 211.25 338 L 211.25 348.5625 A 31.6875 31.6875 0 0 0 179.5625 380.25" fill="#454a97" class="color000 svgShape"></path><rect width="42.25" height="42.25" x="211.25" y="338" fill="#454a97" class="color000 svgShape"></rect><path fill="#c0c0c0" d="M 211.25 338 A 42.25 42.25 0 0 1 253.5 380.25 L 242.9375 380.25 A 31.6875 31.6875 0 0 0 211.25 348.5625" class="colorf1b378 svgShape"></path><rect width="42.25" height="42.25" x="169" y="380.25" fill="#c0c0c0" class="colorf1b378 svgShape"></rect><path d="M 169 380.25 A 42.25 42.25 0 0 0 211.25 422.5 L 211.25 411.9375 A 31.6875 31.6875 0 0 1 179.5625 380.25" fill="#454a97" class="color000 svgShape"></path><rect width="42.25" height="42.25" x="211.25" y="380.25" fill="#c0c0c0" class="colorf1b378 svgShape"></rect><path fill="#c0c0c0" d="M 211.25 422.5 A 42.25 42.25 0 0 0 253.5 380.25 L 242.9375 380.25 A 31.6875 31.6875 0 0 1 211.25 411.9375" class="colorf1b378 svgShape"></path><rect width="84.5" height="84.5" x="253.5" y="338" fill="#454a97" class="color000 svgShape"></rect><rect width="42.25" height="42.25" x="253.5" y="338" fill="#454a97" class="color000 svgShape"></rect><path fill="#c0c0c0" d="M 253.5 380.25 A 42.25 42.25 0 0 0 295.75 338 L 253.5 338" class="colorf1b378 svgShape"></path><rect width="42.25" height="42.25" x="295.75" y="338" fill="#454a97" class="color000 svgShape"></rect><path d="M 295.75 338 A 42.25 42.25 0 0 0 338 380.25 L 338 338" fill="#454a97" class="color000 svgShape"></path><rect width="42.25" height="42.25" x="253.5" y="380.25" fill="#c0c0c0" class="colorf1b378 svgShape"></rect><path d="M 253.5 380.25 A 42.25 42.25 0 0 1 295.75 422.5 L 253.5 422.5" fill="#454a97" class="color000 svgShape"></path><rect width="42.25" height="42.25" x="295.75" y="380.25" fill="#454a97" class="color000 svgShape"></rect><path d="M 295.75 422.5 A 42.25 42.25 0 0 1  338 380.25 L 338 422.5" fill="#454a97" class="color000 svgShape"></path><rect width="84.5" height="84.5" x="338" y="338" fill="#454a97" class="color000 svgShape"></rect><rect width="42.25" height="42.25" x="338" y="338" fill="#c0c0c0" class="colorf1b378 svgShape"></rect><polygon fill="#c0c0c0" points="380.25 338 380.25 380.25 338 380.25" class="colorf1b378 svgShape"></polygon><rect width="42.25" height="42.25" x="380.25" y="338" fill="#c0c0c0" class="colorf1b378 svgShape"></rect><polygon points="380.25 338 422.5 380.25 380.25 380.25" fill="#454a97" class="color000 svgShape"></polygon><rect width="42.25" height="42.25" x="338" y="380.25" fill="#c0c0c0" class="colorf1b378 svgShape"></rect><polygon fill="#c0c0c0" points="338 380.25 380.25 380.25 380.25 422.5" class="colorf1b378 svgShape"></polygon><rect width="42.25" height="42.25" x="380.25" y="380.25" fill="#454a97" class="color000 svgShape"></rect><polygon points="380.25 380.25 422.5 380.25 380.25 422.5" fill="#454a97" class="color000 svgShape"></polygon><rect width="84.5" height="84.5" x="422.5" y="338" fill="#c0c0c0" class="colorf1b378 svgShape"></rect><path fill="#c0c0c0" d="M 422.5 422.5 A 84.5 84.5 0 0 0 507 338 L 422.5 338" class="colorf1b378 svgShape"></path><rect width="84.5" height="84.5" x="507" y="338" fill="#454a97" class="color000 svgShape"></rect><rect width="42.25" height="42.25" x="507" y="338" fill="#c0c0c0" class="colorf1b378 svgShape"></rect><circle cx="528.125" cy="359.125" r="21.125" fill="#454a97" class="color000 svgShape"></circle><rect width="42.25" height="42.25" x="549.25" y="338" fill="#c0c0c0" class="colorf1b378 svgShape"></rect><rect width="42.25" height="42.25" x="549.25" y="338" fill="#454a97" class="color000 svgShape"></rect><rect width="42.25" height="42.25" x="507" y="380.25" fill="#454a97" class="color000 svgShape"></rect><circle cx="528.125" cy="401.375" r="21.125" fill="#c0c0c0" class="colorf1b378 svgShape"></circle><rect width="42.25" height="42.25" x="549.25" y="380.25" fill="#c0c0c0" class="colorf1b378 svgShape"></rect><rect width="42.25" height="42.25" x="549.25" y="380.25" fill="#454a97" class="color000 svgShape"></rect><rect width="84.5" height="84.5" x="591.5" y="338" fill="#c0c0c0" class="colorf1b378 svgShape"></rect><polygon points="591.5 338 676 338 676 422.5" fill="#454a97" class="color000 svgShape"></polygon><rect width="84.5" height="84.5" x="676" y="338" fill="#454a97" class="color000 svgShape"></rect><rect width="42.25" height="42.25" x="676" y="338" fill="#454a97" class="color000 svgShape"></rect><path d="M 676 338 A 42.25 42.25 0 0 0 718.25 380.25 L 718.25 338" fill="#454a97" class="color000 svgShape"></path><rect width="42.25" height="42.25" x="718.25" y="338" fill="#454a97" class="color000 svgShape"></rect><path d="M 718.25 380.25 A 42.25 42.25 0 0 0 760.5 338 L 718.25 338" fill="#454a97" class="color000 svgShape"></path><rect width="42.25" height="42.25" x="676" y="380.25" fill="#454a97" class="color000 svgShape"></rect><path fill="#c0c0c0" d="M 676 422.5 A 42.25 42.25 0 0 1  718.25 380.25 L 718.25 422.5" class="colorf1b378 svgShape"></path><rect width="42.25" height="42.25" x="718.25" y="380.25" fill="#454a97" class="color000 svgShape"></rect><path fill="#c0c0c0" d="M 718.25 380.25 A 42.25 42.25 0 0 1 760.5 422.5 L 718.25 422.5" class="colorf1b378 svgShape"></path><rect width="84.5" height="84.5" x="760.5" y="338" fill="#454a97" class="color000 svgShape"></rect><rect width="84.5" height="84.5" x="760.5" y="338" fill="#c0c0c0" class="colorf1b378 svgShape"></rect><rect width="84.5" height="84.5" x="845" y="338" fill="#454a97" class="color000 svgShape"></rect><polygon points="845 338 929.5 338 929.5 422.5" fill="#454a97" class="color000 svgShape"></polygon><rect width="84.5" height="84.5" y="422.5" fill="#454a97" class="color000 svgShape"></rect><rect width="42.25" height="42.25" y="422.5" fill="#c0c0c0" class="colorf1b378 svgShape"></rect><path d="M 0 464.75 A 42.25 42.25 0 0 1  42.25 422.5 L 42.25 464.75" fill="#454a97" class="color000 svgShape"></path><rect width="42.25" height="42.25" x="42.25" y="422.5" fill="#454a97" class="color000 svgShape"></rect><path fill="#c0c0c0" d="M 42.25 422.5 A 42.25 42.25 0 0 1 84.5 464.75 L 42.25 464.75" class="colorf1b378 svgShape"></path><rect width="42.25" height="42.25" y="464.75" fill="#c0c0c0" class="colorf1b378 svgShape"></rect><path d="M 0 464.75 A 42.25 42.25 0 0 0 42.25 507 L 42.25 464.75" fill="#454a97" class="color000 svgShape"></path><rect width="42.25" height="42.25" x="42.25" y="464.75" fill="#454a97" class="color000 svgShape"></rect><path d="M 42.25 507 A 42.25 42.25 0 0 0 84.5 464.75 L 42.25 464.75" fill="#454a97" class="color000 svgShape"></path><rect width="84.5" height="84.5" x="84.5" y="422.5" fill="#454a97" class="color000 svgShape"></rect><rect width="42.25" height="42.25" x="84.5" y="422.5" fill="#c0c0c0" class="colorf1b378 svgShape"></rect><path d="M 84.5 422.5 A 42.25 42.25 0 0 1 126.75 464.75 L 84.5 464.75" fill="#454a97" class="color000 svgShape"></path><rect width="42.25" height="42.25" x="126.75" y="422.5" fill="#454a97" class="color000 svgShape"></rect><path d="M 126.75 464.75 A 42.25 42.25 0 0 1  169 422.5 L 169 464.75" fill="#454a97" class="color000 svgShape"></path><rect width="42.25" height="42.25" x="84.5" y="464.75" fill="#454a97" class="color000 svgShape"></rect><path fill="#c0c0c0" d="M 84.5 507 A 42.25 42.25 0 0 0 126.75 464.75 L 84.5 464.75" class="colorf1b378 svgShape"></path><rect width="42.25" height="42.25" x="126.75" y="464.75" fill="#c0c0c0" class="colorf1b378 svgShape"></rect><path d="M 126.75 464.75 A 42.25 42.25 0 0 0 169 507 L 169 464.75" fill="#454a97" class="color000 svgShape"></path><rect width="84.5" height="84.5" x="169" y="422.5" fill="#454a97" class="color000 svgShape"></rect><polygon fill="#c0c0c0" points="169 422.5 253.5 422.5 169 507" class="colorf1b378 svgShape"></polygon><rect width="84.5" height="84.5" x="253.5" y="422.5" fill="#454a97" class="color000 svgShape"></rect><path fill="#c0c0c0" d="M 253.5 507 A 84.5 84.5 0 0 1  338 422.5 L 338 507" class="colorf1b378 svgShape"></path><rect width="84.5" height="84.5" x="338" y="422.5" fill="#c0c0c0" class="colorf1b378 svgShape"></rect><path fill="#c0c0c0" d="M 338 422.5 A 84.5 84.5 0 0 0 422.5 507 L 422.5 422.5" class="colorf1b378 svgShape"></path><rect width="84.5" height="84.5" x="422.5" y="422.5" fill="#454a97" class="color000 svgShape"></rect><rect width="42.25" height="42.25" x="422.5" y="422.5" fill="#c0c0c0" class="colorf1b378 svgShape"></rect><path fill="#c0c0c0" d="M 422.5 464.75 A 42.25 42.25 0 0 1 464.75 422.5 L 464.75 433.0625 A 31.6875 31.6875 0 0 0 433.0625 464.75" class="colorf1b378 svgShape"></path><rect width="42.25" height="42.25" x="464.75" y="422.5" fill="#454a97" class="color000 svgShape"></rect><path fill="#c0c0c0" d="M 464.75 422.5 A 42.25 42.25 0 0 1 507 464.75 L 496.4375 464.75 A 31.6875 31.6875 0 0 0 464.75 433.0625" class="colorf1b378 svgShape"></path><rect width="42.25" height="42.25" x="422.5" y="464.75" fill="#454a97" class="color000 svgShape"></rect><path d="M 422.5 464.75 A 42.25 42.25 0 0 0 464.75 507 L 464.75 496.4375 A 31.6875 31.6875 0 0 1 433.0625 464.75" fill="#454a97" class="color000 svgShape"></path><rect width="42.25" height="42.25" x="464.75" y="464.75" fill="#454a97" class="color000 svgShape"></rect><path fill="#c0c0c0" d="M 464.75 507 A 42.25 42.25 0 0 0 507 464.75 L 496.4375 464.75 A 31.6875 31.6875 0 0 1 464.75 496.4375" class="colorf1b378 svgShape"></path><rect width="84.5" height="84.5" x="507" y="422.5" fill="#454a97" class="color000 svgShape"></rect><rect width="42.25" height="42.25" x="507" y="422.5" fill="#454a97" class="color000 svgShape"></rect><path fill="#c0c0c0" d="M 507 422.5 A 42.25 42.25 0 0 1 549.25 464.75 L 507 464.75" class="colorf1b378 svgShape"></path><rect width="42.25" height="42.25" x="549.25" y="422.5" fill="#c0c0c0" class="colorf1b378 svgShape"></rect><path fill="#c0c0c0" d="M 549.25 464.75 A 42.25 42.25 0 0 1  591.5 422.5 L 591.5 464.75" class="colorf1b378 svgShape"></path><rect width="42.25" height="42.25" x="507" y="464.75" fill="#c0c0c0" class="colorf1b378 svgShape"></rect><path d="M 507 507 A 42.25 42.25 0 0 0 549.25 464.75 L 507 464.75" fill="#454a97" class="color000 svgShape"></path><rect width="42.25" height="42.25" x="549.25" y="464.75" fill="#c0c0c0" class="colorf1b378 svgShape"></rect><path fill="#c0c0c0" d="M 549.25 464.75 A 42.25 42.25 0 0 0 591.5 507 L 591.5 464.75" class="colorf1b378 svgShape"></path><rect width="84.5" height="84.5" x="591.5" y="422.5" fill="#454a97" class="color000 svgShape"></rect><rect width="42.25" height="42.25" x="591.5" y="422.5" fill="#c0c0c0" class="colorf1b378 svgShape"></rect><path d="M 591.5 464.75 A 42.25 42.25 0 0 1  633.75 422.5 L 633.75 464.75" fill="#454a97" class="color000 svgShape"></path><rect width="42.25" height="42.25" x="633.75" y="422.5" fill="#454a97" class="color000 svgShape"></rect><path fill="#c0c0c0" d="M 633.75 422.5 A 42.25 42.25 0 0 1 676 464.75 L 633.75 464.75" class="colorf1b378 svgShape"></path><rect width="42.25" height="42.25" x="591.5" y="464.75" fill="#c0c0c0" class="colorf1b378 svgShape"></rect><path fill="#c0c0c0" d="M 591.5 464.75 A 42.25 42.25 0 0 0 633.75 507 L 633.75 464.75" class="colorf1b378 svgShape"></path><rect width="42.25" height="42.25" x="633.75" y="464.75" fill="#c0c0c0" class="colorf1b378 svgShape"></rect><path d="M 633.75 507 A 42.25 42.25 0 0 0 676 464.75 L 633.75 464.75" fill="#454a97" class="color000 svgShape"></path><rect width="84.5" height="84.5" x="676" y="422.5" fill="#454a97" class="color000 svgShape"></rect><rect width="42.25" height="42.25" x="676" y="422.5" fill="#c0c0c0" class="colorf1b378 svgShape"></rect><path fill="#c0c0c0" d="M 676 422.5 A 42.25 42.25 0 0 0 718.25 464.75 L 718.25 422.5" class="colorf1b378 svgShape"></path><rect width="42.25" height="42.25" x="718.25" y="422.5" fill="#c0c0c0" class="colorf1b378 svgShape"></rect><path d="M 718.25 464.75 A 42.25 42.25 0 0 0 760.5 422.5 L 718.25 422.5" fill="#454a97" class="color000 svgShape"></path><rect width="42.25" height="42.25" x="676" y="464.75" fill="#c0c0c0" class="colorf1b378 svgShape"></rect><path d="M 676 507 A 42.25 42.25 0 0 1  718.25 464.75 L 718.25 507" fill="#454a97" class="color000 svgShape"></path><rect width="42.25" height="42.25" x="718.25" y="464.75" fill="#454a97" class="color000 svgShape"></rect><path d="M 718.25 464.75 A 42.25 42.25 0 0 1 760.5 507 L 718.25 507" fill="#454a97" class="color000 svgShape"></path><rect width="84.5" height="84.5" x="760.5" y="422.5" fill="#454a97" class="color000 svgShape"></rect><path fill="#c0c0c0" d="M 760.5 507 A 84.5 84.5 0 0 1  845 422.5 L 760.5 507 A 84.5 84.5 0 0 0 845 422.5" class="colorf1b378 svgShape"></path><rect width="84.5" height="84.5" x="845" y="422.5" fill="#454a97" class="color000 svgShape"></rect><rect width="42.25" height="42.25" x="845" y="422.5" fill="#c0c0c0" class="colorf1b378 svgShape"></rect><polygon points="887.25 422.5 887.25 464.75 845 464.75" fill="#454a97" class="color000 svgShape"></polygon><rect width="42.25" height="42.25" x="887.25" y="422.5" fill="#454a97" class="color000 svgShape"></rect><polygon points="887.25 422.5 929.5 464.75 887.25 464.75" fill="#454a97" class="color000 svgShape"></polygon><rect width="42.25" height="42.25" x="845" y="464.75" fill="#454a97" class="color000 svgShape"></rect><polygon points="845 464.75 887.25 464.75 887.25 507" fill="#454a97" class="color000 svgShape"></polygon><rect width="42.25" height="42.25" x="887.25" y="464.75" fill="#c0c0c0" class="colorf1b378 svgShape"></rect><polygon points="887.25 464.75 929.5 464.75 887.25 507" fill="#454a97" class="color000 svgShape"></polygon></g></svg></g></svg>