<?xml version="1.0" standalone="no"?><svg xmlns:xlink="http://www.w3.org/1999/xlink" xmlns="http://www.w3.org/2000/svg" viewBox="0 0 1000 545.4545454545455" preserveAspectRatio="xMaxYMax slice"><g transform="scale(1.0758472296933836)"><rect x="0" y="0" width="929.5" height="507" fill="#000000"/><path d="M 0 169 A 84.5 84.5 0 0 1  84.5 84.5 L 0 169 A 84.5 84.5 0 0 0 84.5 84.5" fill="#9b9b9b"/><rect x="169" y="84.5" width="84.5" height="84.5" fill="#000000"/><path d="M 169 126.75 A 42.25 42.25 0 0 1  211.25 169 L 169 126.75 A 42.25 42.25 0 0 0 211.25 169" fill="#646464"/><rect x="422.5" y="84.5" width="84.5" height="84.5" fill="#000000"/><path d="M 422.5 84.5 A 42.25 42.25 0 0 1  464.75 126.75 L 422.5 84.5 A 42.25 42.25 0 0 0 464.75 126.75" fill="#333333"/><path d="M 464.75 126.75 A 42.25 42.25 0 0 1  507 84.5 L 464.75 126.75 A 42.25 42.25 0 0 0 507 84.5" fill="#9c744e"/><path d="M 464.75 169 A 42.25 42.25 0 0 1  507 126.75 L 464.75 169 A 42.25 42.25 0 0 0 507 126.75" fill="#8f6a47"/><rect x="845" y="84.5" width="84.5" height="84.5" fill="#000000"/><path d="M 0 169 A 84.5 84.5 0 0 1  84.5 253.5 L 0 169 A 84.5 84.5 0 0 0 84.5 253.5" fill="#cf9a67"/><rect x="169" y="169" width="84.5" height="84.5" fill="#000000"/><path d="M 507 169 A 84.5 84.5 0 0 1  591.5 253.5 L 507 169 A 84.5 84.5 0 0 0 591.5 253.5" fill="#2c2116"/><path d="M 676 253.5 A 84.5 84.5 0 0 1  760.5 169 L 676 253.5 A 84.5 84.5 0 0 0 760.5 169" fill="#dfa66f"/><rect x="760.5" y="169" width="84.5" height="84.5" fill="#000000"/><path d="M 760.5 169 A 42.25 42.25 0 0 1  802.75 211.25 L 760.5 169 A 42.25 42.25 0 0 0 802.75 211.25" fill="#d3d3d3"/><path d="M 760.5 211.25 A 42.25 42.25 0 0 1  802.75 253.5 L 760.5 211.25 A 42.25 42.25 0 0 0 802.75 253.5" fill="#281e14"/><path d="M 802.75 253.5 A 42.25 42.25 0 0 1  845 211.25 L 802.75 253.5 A 42.25 42.25 0 0 0 845 211.25" fill="#a87d54"/><rect x="0" y="253.5" width="84.5" height="84.5" fill="#000000"/><path d="M 42.25 295.75 A 42.25 42.25 0 0 1  84.5 253.5 L 42.25 295.75 A 42.25 42.25 0 0 0 84.5 253.5" fill="#4a3725"/><path d="M 0 295.75 A 42.25 42.25 0 0 1  42.25 338 L 0 295.75 A 42.25 42.25 0 0 0 42.25 338" fill="#bd8c5e"/><path d="M 42.25 338 A 42.25 42.25 0 0 1  84.5 295.75 L 42.25 338 A 42.25 42.25 0 0 0 84.5 295.75" fill="#b0b0b0"/><path d="M 169 253.5 A 84.5 84.5 0 0 1  253.5 338 L 169 253.5 A 84.5 84.5 0 0 0 253.5 338" fill="#271d13"/><rect x="253.5" y="253.5" width="84.5" height="84.5" fill="#000000"/><path d="M 253.5 253.5 A 42.25 42.25 0 0 1  295.75 295.75 L 253.5 253.5 A 42.25 42.25 0 0 0 295.75 295.75" fill="#707070"/><path d="M 253.5 338 A 42.25 42.25 0 0 1  295.75 295.75 L 253.5 338 A 42.25 42.25 0 0 0 295.75 295.75" fill="#3b2c1d"/><path d="M 295.75 338 A 42.25 42.25 0 0 1  338 295.75 L 295.75 338 A 42.25 42.25 0 0 0 338 295.75" fill="#ac8055"/><path d="M 338 253.5 A 84.5 84.5 0 0 1  422.5 338 L 338 253.5 A 84.5 84.5 0 0 0 422.5 338" fill="#c79463"/><path d="M 845 338 A 84.5 84.5 0 0 1  929.5 253.5 L 845 338 A 84.5 84.5 0 0 0 929.5 253.5" fill="#777777"/><rect x="0" y="338" width="84.5" height="84.5" fill="#000000"/><path d="M 0 338 A 42.25 42.25 0 0 1  42.25 380.25 L 0 338 A 42.25 42.25 0 0 0 42.25 380.25" fill="#c99564"/><path d="M 42.25 380.25 A 42.25 42.25 0 0 1  84.5 338 L 42.25 380.25 A 42.25 42.25 0 0 0 84.5 338" fill="#0f0f0f"/><path d="M 0 422.5 A 42.25 42.25 0 0 1  42.25 380.25 L 0 422.5 A 42.25 42.25 0 0 0 42.25 380.25" fill="#37291b"/><path d="M 84.5 422.5 A 84.5 84.5 0 0 1  169 338 L 84.5 422.5 A 84.5 84.5 0 0 0 169 338" fill="#a4a4a4"/><rect x="253.5" y="338" width="84.5" height="84.5" fill="#000000"/><path d="M 253.5 380.25 A 42.25 42.25 0 0 1  295.75 338 L 253.5 380.25 A 42.25 42.25 0 0 0 295.75 338" fill="#6c6c6c"/><path d="M 295.75 338 A 42.25 42.25 0 0 1  338 380.25 L 295.75 338 A 42.25 42.25 0 0 0 338 380.25" fill="#f0b378"/><path d="M 253.5 380.25 A 42.25 42.25 0 0 1  295.75 422.5 L 253.5 380.25 A 42.25 42.25 0 0 0 295.75 422.5" fill="#6c6c6c"/><path d="M 295.75 380.25 A 42.25 42.25 0 0 1  338 422.5 L 295.75 380.25 A 42.25 42.25 0 0 0 338 422.5" fill="#5b5b5b"/><path d="M 338 338 A 84.5 84.5 0 0 1  422.5 422.5 L 338 338 A 84.5 84.5 0 0 0 422.5 422.5" fill="#dfa66f"/><rect x="507" y="338" width="84.5" height="84.5" fill="#000000"/><path d="M 507 380.25 A 42.25 42.25 0 0 1  549.25 338 L 507 380.25 A 42.25 42.25 0 0 0 549.25 338" fill="#040302"/><path d="M 507 380.25 A 42.25 42.25 0 0 1  549.25 422.5 L 507 380.25 A 42.25 42.25 0 0 0 549.25 422.5" fill="#3b2c1e"/><path d="M 549.25 422.5 A 42.25 42.25 0 0 1  591.5 380.25 L 549.25 422.5 A 42.25 42.25 0 0 0 591.5 380.25" fill="#7a7a7a"/><rect x="591.5" y="338" width="84.5" height="84.5" fill="#000000"/><path d="M 633.75 380.25 A 42.25 42.25 0 0 1  676 338 L 633.75 380.25 A 42.25 42.25 0 0 0 676 338" fill="#e7e7e7"/><path d="M 591.5 380.25 A 42.25 42.25 0 0 1  633.75 422.5 L 591.5 380.25 A 42.25 42.25 0 0 0 633.75 422.5" fill="#0d0906"/><path d="M 633.75 380.25 A 42.25 42.25 0 0 1  676 422.5 L 633.75 380.25 A 42.25 42.25 0 0 0 676 422.5" fill="#d9a16c"/><path d="M 676 338 A 84.5 84.5 0 0 1  760.5 422.5 L 676 338 A 84.5 84.5 0 0 0 760.5 422.5" fill="#2e2e2e"/><path d="M 760.5 422.5 A 84.5 84.5 0 0 1  845 338 L 760.5 422.5 A 84.5 84.5 0 0 0 845 338" fill="#101010"/><path d="M 845 338 A 84.5 84.5 0 0 1  929.5 422.5 L 845 338 A 84.5 84.5 0 0 0 929.5 422.5" fill="#e0a770"/><path d="M 0 422.5 A 84.5 84.5 0 0 1  84.5 507 L 0 422.5 A 84.5 84.5 0 0 0 84.5 507" fill="#241a12"/><rect x="84.5" y="422.5" width="84.5" height="84.5" fill="#000000"/><path d="M 84.5 422.5 A 42.25 42.25 0 0 1  126.75 464.75 L 84.5 422.5 A 42.25 42.25 0 0 0 126.75 464.75" fill="#201810"/><path d="M 126.75 464.75 A 42.25 42.25 0 0 1  169 422.5 L 126.75 464.75 A 42.25 42.25 0 0 0 169 422.5" fill="#656565"/><path d="M 84.5 464.75 A 42.25 42.25 0 0 1  126.75 507 L 84.5 464.75 A 42.25 42.25 0 0 0 126.75 507" fill="#515151"/><path d="M 126.75 507 A 42.25 42.25 0 0 1  169 464.75 L 126.75 507 A 42.25 42.25 0 0 0 169 464.75" fill="#8b8b8b"/><rect x="169" y="422.5" width="84.5" height="84.5" fill="#000000"/><path d="M 169 422.5 A 42.25 42.25 0 0 1  211.25 464.75 L 169 422.5 A 42.25 42.25 0 0 0 211.25 464.75" fill="#ebaf75"/><path d="M 211.25 464.75 A 42.25 42.25 0 0 1  253.5 422.5 L 211.25 464.75 A 42.25 42.25 0 0 0 253.5 422.5" fill="#292929"/><path d="M 169 464.75 A 42.25 42.25 0 0 1  211.25 507 L 169 464.75 A 42.25 42.25 0 0 0 211.25 507" fill="#101010"/><path d="M 211.25 464.75 A 42.25 42.25 0 0 1  253.5 507 L 211.25 464.75 A 42.25 42.25 0 0 0 253.5 507" fill="#cd9866"/><rect x="253.5" y="422.5" width="84.5" height="84.5" fill="#000000"/><path d="M 253.5 422.5 A 42.25 42.25 0 0 1  295.75 464.75 L 253.5 422.5 A 42.25 42.25 0 0 0 295.75 464.75" fill="#3a2b1d"/><path d="M 295.75 422.5 A 42.25 42.25 0 0 1  338 464.75 L 295.75 422.5 A 42.25 42.25 0 0 0 338 464.75" fill="#18120c"/><path d="M 253.5 507 A 42.25 42.25 0 0 1  295.75 464.75 L 253.5 507 A 42.25 42.25 0 0 0 295.75 464.75" fill="#f4f4f4"/><path d="M 295.75 464.75 A 42.25 42.25 0 0 1  338 507 L 295.75 464.75 A 42.25 42.25 0 0 0 338 507" fill="#d69f6b"/><path d="M 338 422.5 A 84.5 84.5 0 0 1  422.5 507 L 338 422.5 A 84.5 84.5 0 0 0 422.5 507" fill="#404040"/><rect x="422.5" y="422.5" width="84.5" height="84.5" fill="#000000"/><path d="M 422.5 422.5 A 42.25 42.25 0 0 1  464.75 464.75 L 422.5 422.5 A 42.25 42.25 0 0 0 464.75 464.75" fill="#b4b4b4"/><path d="M 464.75 422.5 A 42.25 42.25 0 0 1  507 464.75 L 464.75 422.5 A 42.25 42.25 0 0 0 507 464.75" fill="#b38559"/><path d="M 422.5 464.75 A 42.25 42.25 0 0 1  464.75 507 L 422.5 464.75 A 42.25 42.25 0 0 0 464.75 507" fill="#989898"/><path d="M 464.75 507 A 42.25 42.25 0 0 1  507 464.75 L 464.75 507 A 42.25 42.25 0 0 0 507 464.75" fill="#c2c2c2"/><rect x="507" y="422.5" width="84.5" height="84.5" fill="#000000"/><path d="M 507 464.75 A 42.25 42.25 0 0 1  549.25 422.5 L 507 464.75 A 42.25 42.25 0 0 0 549.25 422.5" fill="#2c2c2c"/><path d="M 549.25 464.75 A 42.25 42.25 0 0 1  591.5 422.5 L 549.25 464.75 A 42.25 42.25 0 0 0 591.5 422.5" fill="#9a9a9a"/><path d="M 507 464.75 A 42.25 42.25 0 0 1  549.25 507 L 507 464.75 A 42.25 42.25 0 0 0 549.25 507" fill="#58412c"/><path d="M 549.25 464.75 A 42.25 42.25 0 0 1  591.5 507 L 549.25 464.75 A 42.25 42.25 0 0 0 591.5 507" fill="#423121"/><path d="M 591.5 422.5 A 84.5 84.5 0 0 1  676 507 L 591.5 422.5 A 84.5 84.5 0 0 0 676 507" fill="#0e0e0e"/><rect x="676" y="422.5" width="84.5" height="84.5" fill="#000000"/><path d="M 676 422.5 A 42.25 42.25 0 0 1  718.25 464.75 L 676 422.5 A 42.25 42.25 0 0 0 718.25 464.75" fill="#343434"/><path d="M 718.25 464.75 A 42.25 42.25 0 0 1  760.5 422.5 L 718.25 464.75 A 42.25 42.25 0 0 0 760.5 422.5" fill="#cbcbcb"/><path d="M 676 507 A 42.25 42.25 0 0 1  718.25 464.75 L 676 507 A 42.25 42.25 0 0 0 718.25 464.75" fill="#4b3825"/><path d="M 718.25 507 A 42.25 42.25 0 0 1  760.5 464.75 L 718.25 507 A 42.25 42.25 0 0 0 760.5 464.75" fill="#cb9765"/><rect x="760.5" y="422.5" width="84.5" height="84.5" fill="#000000"/><path d="M 760.5 464.75 A 42.25 42.25 0 0 1  802.75 422.5 L 760.5 464.75 A 42.25 42.25 0 0 0 802.75 422.5" fill="#d09a67"/><path d="M 802.75 464.75 A 42.25 42.25 0 0 1  845 422.5 L 802.75 464.75 A 42.25 42.25 0 0 0 845 422.5" fill="#797979"/><path d="M 760.5 507 A 42.25 42.25 0 0 1  802.75 464.75 L 760.5 507 A 42.25 42.25 0 0 0 802.75 464.75" fill="#e4e4e4"/><path d="M 802.75 464.75 A 42.25 42.25 0 0 1  845 507 L 802.75 464.75 A 42.25 42.25 0 0 0 845 507" fill="#553f2a"/><rect x="845" y="422.5" width="84.5" height="84.5" fill="#000000"/><path d="M 845 464.75 A 42.25 42.25 0 0 1  887.25 422.5 L 845 464.75 A 42.25 42.25 0 0 0 887.25 422.5" fill="#e3a971"/><path d="M 887.25 464.75 A 42.25 42.25 0 0 1  929.5 422.5 L 887.25 464.75 A 42.25 42.25 0 0 0 929.5 422.5" fill="#9c744e"/><path d="M 845 507 A 42.25 42.25 0 0 1  887.25 464.75 L 845 507 A 42.25 42.25 0 0 0 887.25 464.75" fill="#3e3e3e"/><path d="M 887.25 464.75 A 42.25 42.25 0 0 1  929.5 507 L 887.25 464.75 A 42.25 42.25 0 0 0 929.5 507" fill="#4b4b4b"/></g></svg>