<svg width="1920" height="1080" viewBox="0 0 1920 1080" xmlns="http://www.w3.org/2000/svg"><rect width="1920" height="1080" fill="#c0c0c0"/><path d="M 0,1080 C 0,1080 0,90 0,90 C 34.98765662683354,75.01821246987714 69.97531325366708,60.0364249397543 94,70 C 118.02468674633292,79.9635750602457 131.08640361216518,114.87251271085994 166,118 C 200.91359638783482,121.12748728914006 257.679072297672,92.47352421680598 295,83 C 332.320927702328,73.52647578319402 350.19730719714664,83.23339042191613 374,84 C 397.80269280285336,84.76660957808387 427.5316989137413,76.59291409552944 466,67 C 504.4683010862587,57.407085904470556 551.6758971478879,46.394953195966096 581,58 C 610.3241028521121,69.6050468040339 621.7647124947075,103.82727312060615 655,116 C 688.2352875052925,128.17272687939385 743.2652528732822,118.29595432160927 787,109 C 830.7347471267178,99.70404567839073 863.1742760121639,90.98890959295674 894,95 C 924.8257239878361,99.01109040704326 954.0376430780618,115.74840730656375 986,119 C 1017.9623569219382,122.25159269343625 1052.6751516755887,112.01746118078826 1080,106 C 1107.3248483244113,99.98253881921174 1127.2617502195833,98.18174797028318 1151,100 C 1174.7382497804167,101.81825202971682 1202.2778474460786,107.25554693807898 1236,106 C 1269.7221525539214,104.74445306192102 1309.626859996102,96.7960642774009 1345,93 C 1380.373140003898,89.2039357225991 1411.2147125695124,89.56019595231744 1437,91 C 1462.7852874304876,92.43980404768256 1483.5142897258488,94.96315191332928 1511,91 C 1538.4857102741512,87.03684808667072 1572.728128527092,76.58719639436535 1606,68 C 1639.271871472908,59.41280360563465 1671.5731961657827,52.68806250920933 1717,64 C 1762.4268038342173,75.31193749079067 1820.9790868097764,104.66055356879733 1857,112 C 1893.0209131902236,119.33944643120267 1906.510456595112,104.66972321560134 1920,90 C 1920,90 1920,1080 1920,1080 Z" fill="#454a97" opacity="0.049999999999999996"/><path d="M 0,1080 C 0,1080 0,180 0,180 C 17.231526038888376,182.32020802089392 34.46305207777675,184.64041604178783 65,188 C 95.53694792222325,191.35958395821217 139.37931772778137,195.75854385374265 180,193 C 220.62068227221863,190.24145614625735 258.01967701109766,180.3254085432416 285,169 C 311.98032298890234,157.6745914567584 328.5419742278283,144.93982197329098 352,148 C 375.4580257721717,151.06017802670902 405.81242607758924,169.91530356359445 452,182 C 498.18757392241076,194.08469643640555 560.2083214618146,199.39896377233134 586,189 C 611.7916785381854,178.60103622766866 601.3542880751518,152.48884134708027 637,156 C 672.6457119248482,159.51115865291973 754.3745262375784,192.6456708393476 799,199 C 843.6254737624216,205.3543291606524 851.1476069745345,184.92847529552935 875,174 C 898.8523930254655,163.07152470447065 939.035045864284,161.640427978535 978,169 C 1016.964954135716,176.359572021465 1054.7122095683296,192.5098127903307 1072,192 C 1089.2877904316704,191.4901872096693 1086.1161158623977,174.32032086014223 1123,172 C 1159.8838841376023,169.67967913985777 1236.8233269820796,182.20890376910046 1281,180 C 1325.1766730179204,177.79109623089954 1336.5905762092839,160.84406406345602 1361,165 C 1385.4094237907161,169.15593593654398 1422.814368180784,194.41483997707542 1451,206 C 1479.185631819216,217.58516002292458 1498.1519510675798,215.49657602824223 1529,213 C 1559.8480489324202,210.50342397175777 1602.577827548896,207.5988559099557 1633,197 C 1663.422172451104,186.4011440900443 1681.5367387368358,168.108000331935 1717,167 C 1752.4632612631642,165.891999668065 1805.275217503761,181.96914276230427 1842,187 C 1878.724782496239,192.03085723769573 1899.3623912481194,186.01542861884786 1920,180 C 1920,180 1920,1080 1920,1080 Z" fill="#454a97" opacity="0.09999999999999999"/><path d="M 0,1080 C 0,1080 0,270 0,270 C 39.442718458288226,275.6597402387155 78.88543691657645,281.31948047743094 106,280 C 133.11456308342355,278.68051952256906 147.90097079198242,270.3818183289917 173,275 C 198.09902920801758,279.6181816710083 233.510679915494,297.1532462066023 270,301 C 306.489320084506,304.8467537933977 344.0563095460416,295.00519684459886 374,291 C 403.9436904539584,286.99480315540114 426.2640819003397,288.825966415002 463,291 C 499.7359180996603,293.174033584998 550.8873628525994,295.69093749539326 583,289 C 615.1126371474006,282.30906250460674 628.186466689263,266.4102836034248 650,259 C 671.813533310737,251.5897163965752 702.3667703903485,252.66792809090762 748,249 C 793.6332296096515,245.33207190909238 854.3464517493426,236.91800403294465 888,240 C 921.6535482506574,243.08199596705535 928.2474226122816,257.66005577731374 954,262 C 979.7525773877184,266.33994422268626 1024.663857801531,260.4417728578006 1053,255 C 1081.336142198469,249.55822714219943 1093.0971461815936,244.57285279148414 1120,239 C 1146.9028538184064,233.42714720851586 1188.9475574720946,227.26681597626282 1222,244 C 1255.0524425279054,260.7331840237372 1279.112623930028,300.35988330346464 1314,297 C 1348.887376069972,293.64011669653536 1394.6019468077943,247.29365080987841 1445,237 C 1495.3980531922057,226.70634919012159 1550.4795888387953,252.4655134570216 1571,266 C 1591.5204111612047,279.5344865429784 1577.4796978370239,280.84429536203544 1599,274 C 1620.5203021629761,267.15570463796456 1677.6016198131088,252.1573050948366 1722,259 C 1766.3983801868912,265.8426949051634 1798.1138229105402,294.5264842586181 1829,300 C 1859.8861770894598,305.4735157413819 1889.94308854473,287.73675787069095 1920,270 C 1920,270 1920,1080 1920,1080 Z" fill="#454a97" opacity="0.15"/><path d="M 0,1080 C 0,1080 0,360 0,360 C 45.82750308974241,356.7649360923859 91.65500617948481,353.52987218477176 124,358 C 156.34499382051519,362.47012781522824 175.20747837180315,374.64544735329883 206,382 C 236.79252162819685,389.35455264670117 279.51508033330265,391.88833840203307 315,390 C 350.48491966669735,388.11166159796693 378.7322002949864,381.80119903856894 403,371 C 427.2677997050136,360.19880096143106 447.55611848675187,344.9068654436911 478,352 C 508.44388151324813,359.0931345563089 549.0433257580064,388.57133918666665 580,387 C 610.9566742419936,385.42866081333335 632.2705784812227,352.80777780964235 663,344 C 693.7294215187773,335.19222219035765 733.874360317103,350.19754957476397 768,360 C 802.125639682897,369.80245042523603 830.2319802503655,374.402023891302 860,370 C 889.7680197496345,365.597976108698 921.1977186814349,352.19435486002806 949,358 C 976.8022813185651,363.80564513997194 1000.977145023895,388.82055666858594 1031,390 C 1061.022854976105,391.17944333141406 1096.8937012229853,368.5234184656284 1130,358 C 1163.1062987770147,347.4765815343716 1193.4480500841637,349.0857694689006 1227,360 C 1260.5519499158363,370.9142305310994 1297.3140984403599,391.13350365876937 1336,386 C 1374.6859015596401,380.86649634123063 1415.2955561543965,350.38021589602187 1450,349 C 1484.7044438456035,347.61978410397813 1513.503676942054,375.3456327571433 1548,372 C 1582.496323057946,368.6543672428567 1622.6897360773874,334.2372530754049 1652,326 C 1681.3102639226126,317.7627469245951 1699.7373787483957,335.7053549412371 1729,344 C 1758.2626212516043,352.2946450587629 1798.3607489290298,350.9413271596465 1832,352 C 1865.6392510709702,353.0586728403535 1892.819625535485,356.5293364201767 1920,360 C 1920,360 1920,1080 1920,1080 Z" fill="#454a97" opacity="0.19999999999999998"/><path d="M 0,1080 C 0,1080 0,450 0,450 C 13.545270488744471,441.60757779475756 27.090540977488942,433.2151555895151 66,431 C 104.90945902251106,428.7848444104849 169.18310657878868,432.74695543669725 213,445 C 256.8168934212113,457.25304456330275 280.1770327073564,477.79702266369617 305,470 C 329.8229672926436,462.20297733630383 356.10876259178593,426.06495390851825 388,418 C 419.89123740821407,409.93504609148175 457.38791692550024,429.94316170223107 483,437 C 508.61208307449976,444.05683829776893 522.3395697062132,438.1623992825575 556,439 C 589.6604302937868,439.8376007174425 643.2538042496473,447.4072411675388 677,455 C 710.7461957503527,462.5927588324612 724.6452132951975,470.2086360472877 757,462 C 789.3547867048025,453.7913639527123 840.1653425695628,429.75821464331034 882,423 C 923.8346574304372,416.24178535668966 956.693416426551,426.75850537947076 974,436 C 991.306583573449,445.24149462052924 993.060991724233,453.2077638388065 1026,457 C 1058.939008275767,460.7922361611935 1123.062616676517,460.4104392653031 1161,460 C 1198.937383323483,459.5895607346969 1210.6885415696975,459.15047909998106 1231,461 C 1251.3114584303025,462.84952090001894 1280.1832170446921,466.98764433477294 1318,474 C 1355.8167829553079,481.01235566522706 1402.5785902515331,490.89894356092685 1441,476 C 1479.4214097484669,461.10105643907315 1509.5024219491747,421.4165814215196 1539,422 C 1568.4975780508253,422.5834185784804 1597.4117219517677,463.4347307529947 1632,480 C 1666.5882780482323,496.5652692470053 1706.850690243755,488.8444955665014 1741,474 C 1775.149309756245,459.1555044334986 1803.1855170732128,437.1872869809996 1832,432 C 1860.8144829267872,426.8127130190004 1890.4072414633936,438.4063565095002 1920,450 C 1920,450 1920,1080 1920,1080 Z" fill="#454a97" opacity="0.24999999999999997"/><path d="M 0,1080 C 0,1080 0,540 0,540 C 32.62773415768465,533.4663110757542 65.2554683153693,526.9326221515086 94,534 C 122.7445316846307,541.0673778484914 147.60586089620747,561.7358224697202 178,570 C 208.39413910379253,578.2641775302798 244.32108809980087,574.1240879696106 286,559 C 327.6789119001991,543.8759120303894 375.10978670458917,517.767825651837 416,508 C 456.89021329541083,498.2321743481629 491.2397650818423,504.8046094230407 509,516 C 526.7602349181577,527.1953905769593 527.9311529680417,543.0137366560001 557,550 C 586.0688470319583,556.9862633439999 643.0356230459905,555.1404439529587 676,557 C 708.9643769540095,558.8595560470413 717.9263548479964,564.424487532165 747,567 C 776.0736451520036,569.575512467835 825.2589575620235,569.1616059183809 858,570 C 890.7410424379765,570.8383940816191 907.0378149039096,572.9290887943112 930,561 C 952.9621850960904,549.0709112056888 982.5897828223378,523.122038904374 1022,515 C 1061.4102171776622,506.87796109562595 1110.6030538067391,516.5827555881924 1152,533 C 1193.3969461932609,549.4172444118076 1226.9980019507054,572.5469387428568 1259,568 C 1291.0019980492946,563.4530612571432 1321.4049383904396,531.2294894403808 1343,528 C 1364.5950616095604,524.7705105596192 1377.382244487536,550.5351034956196 1416,558 C 1454.617755512464,565.4648965043804 1519.0660836594172,554.6300965771406 1559,549 C 1598.9339163405828,543.3699034228594 1614.3534208747951,542.944510195818 1638,544 C 1661.6465791252049,545.055489804182 1693.5202328414011,547.5918626395874 1725,548 C 1756.4797671585989,548.4081373604126 1787.5656477595996,546.6880392458322 1820,545 C 1852.4343522404004,543.3119607541678 1886.2171761202003,541.6559803770839 1920,540 C 1920,540 1920,1080 1920,1080 Z" fill="#454a97" opacity="0.3"/><path d="M 0,1080 C 0,1080 0,630 0,630 C 51.814207990986986,633.4414078000598 103.62841598197397,636.8828156001194 127,629 C 150.37158401802603,621.1171843998806 145.30054406309117,601.9101453995816 176,610 C 206.69945593690883,618.0898546004184 273.1694077656613,653.4766028015542 305,657 C 336.8305922343387,660.5233971984458 334.02182487426387,632.1834433942017 362,627 C 389.97817512573613,621.8165566057983 448.74329273728324,639.7896236216387 487,644 C 525.2567072627168,648.2103763783613 543.005004176603,638.6580621192436 572,632 C 600.994995823397,625.3419378807564 641.2366905563047,621.5781279013866 671,616 C 700.7633094436953,610.4218720986134 720.0482335981782,603.02942627521 748,617 C 775.9517664018218,630.97057372479 812.5703750509828,666.3041669977735 858,662 C 903.4296249490172,657.6958330022265 957.6702661978904,613.7539057336965 991,607 C 1024.3297338021096,600.2460942663035 1036.7485601574551,630.6802100674411 1050,639 C 1063.2514398425449,647.3197899325589 1077.3354931722888,633.5252539965393 1118,635 C 1158.6645068277112,636.4747460034607 1225.909467153389,653.218773946402 1261,649 C 1296.090532846611,644.781226053598 1299.0266382141554,619.5996502178522 1327,618 C 1354.9733617858446,616.4003497821478 1407.9839799899894,638.3826251821891 1455,643 C 1502.0160200100106,647.6173748178109 1543.0374418258868,634.8698490533912 1567,626 C 1590.9625581741132,617.1301509466088 1597.8662527064632,612.1379786042456 1620,609 C 1642.1337472935368,605.8620213957544 1679.4975473482598,604.5782365296262 1710,606 C 1740.5024526517402,607.4217634703738 1764.1435579004972,611.5490752772496 1798,616 C 1831.8564420995028,620.4509247227504 1875.9282210497513,625.2254623613752 1920,630 C 1920,630 1920,1080 1920,1080 Z" fill="#454a97" opacity="0.35"/><path d="M 0,1080 C 0,1080 0,720 0,720 C 16.65618170838554,709.6792614747418 33.31236341677108,699.3585229494836 68,691 C 102.68763658322892,682.6414770505164 155.40672804130125,676.2451696768077 188,692 C 220.59327195869875,707.7548303231923 233.06072441802405,745.6607983432855 272,752 C 310.93927558197595,758.3392016567145 376.3503742866026,733.1116369500505 418,715 C 459.6496257133974,696.8883630499495 477.53777843556566,685.8926538565128 489,698 C 500.46222156443434,710.1073461434872 505.4985119711346,745.3177476238983 544,744 C 582.5014880288654,742.6822523761017 654.4681736798958,704.8363556478937 691,696 C 727.5318263201042,687.1636443521063 728.6287933092829,707.3368297845274 753,718 C 777.3712066907171,728.6631702154726 825.016653082973,729.8163252139965 864,718 C 902.983346917027,706.1836747860035 933.304594358825,681.3978693594861 958,688 C 982.695405641175,694.6021306405139 1001.7649694817262,732.592197348059 1041,733 C 1080.2350305182738,733.407802651941 1139.6355277142704,696.2333412482781 1182,687 C 1224.3644722857296,677.7666587517219 1249.692919661192,696.4744376588288 1281,715 C 1312.307080338808,733.5255623411712 1349.5927936409616,751.8689081164065 1376,752 C 1402.4072063590384,752.1310918835935 1417.9359057749607,734.0499298755446 1448,728 C 1478.0640942250393,721.9500701244554 1522.6635832591953,727.9313723814149 1560,731 C 1597.3364167408047,734.0686276185851 1627.4097611882569,734.224580598796 1646,728 C 1664.5902388117431,721.775419401204 1671.697371987777,709.170305223401 1708,711 C 1744.302628012223,712.829694776599 1809.8007508606352,729.0941985075998 1850,733 C 1890.1992491393648,736.9058014924002 1905.0996245696824,728.4529007462002 1920,720 C 1920,720 1920,1080 1920,1080 Z" fill="#454a97" opacity="0.39999999999999997"/><path d="M 0,1080 C 0,1080 0,810 0,810 C 32.119911693356144,812.9184328129047 64.23982338671229,815.8368656258093 98,824 C 131.7601766132877,832.1631343741907 167.16061814650695,845.5709703096671 195,838 C 222.83938185349305,830.4290296903329 243.11770402725978,801.8792531355224 268,790 C 292.8822959727402,778.1207468644776 322.36856574445403,782.9120171482436 351,797 C 379.63143425554597,811.0879828517564 407.4080329949241,834.4726782715035 453,829 C 498.5919670050759,823.5273217284965 561.9993022758496,789.1972697657424 605,783 C 648.0006977241504,776.8027302342576 670.5947579016774,798.7382426655269 687,799 C 703.4052420983226,799.2617573344731 713.6216661174403,777.8497595721502 737,785 C 760.3783338825597,792.1502404278498 796.918577628561,827.8627190458718 841,831 C 885.081422371439,834.1372809541282 936.7040233683152,804.6993642443628 976,802 C 1015.2959766316848,799.3006357556372 1042.2653288981778,823.339823976677 1076,834 C 1109.7346711018222,844.660176023323 1150.2346610389739,841.9413398489287 1179,828 C 1207.7653389610261,814.0586601510713 1224.796026945926,788.8948166276082 1244,791 C 1263.203973054074,793.1051833723918 1284.5812311773211,822.4793936406388 1319,824 C 1353.4187688226789,825.5206063593612 1400.8790483447888,799.1876088098362 1436,801 C 1471.1209516552112,802.8123911901638 1493.9025754435233,832.7701711200161 1518,827 C 1542.0974245564767,821.2298288799839 1567.5106498811174,779.7317067100988 1603,777 C 1638.4893501188826,774.2682932899012 1684.0548250320066,810.3030020395887 1722,821 C 1759.9451749679934,831.6969979604113 1790.2700499908551,817.0562851315461 1822,811 C 1853.7299500091449,804.9437148684539 1886.8649750045724,807.4718574342269 1920,810 C 1920,810 1920,1080 1920,1080 Z" fill="#454a97" opacity="0.44999999999999996"/><path d="M 0,1080 C 0,1080 0,900 0,900 C 18.024901606168214,908.1121968460704 36.04980321233643,916.2243936921408 78,919 C 119.95019678766357,921.7756063078592 185.82568875682253,919.2146220775071 217,916 C 248.17431124317747,912.7853779224929 244.64744176037362,908.9171179978307 272,900 C 299.3525582396264,891.0828820021693 357.58454420168306,877.11690593117 403,879 C 448.41545579831694,880.88309406883 481.01438143289397,898.6152582774891 502,894 C 522.985618567106,889.3847417225109 532.3579300667412,862.422060958874 558,867 C 583.6420699332588,871.577939041126 625.5538983001414,907.6964978870147 668,914 C 710.4461016998586,920.3035021129853 753.4264767326933,896.791947493067 775,896 C 796.5735232673067,895.208052506933 796.7401947690853,917.1357121407173 831,922 C 865.2598052309147,926.8642878592827 933.6127441909647,914.6652039440639 970,901 C 1006.3872558090353,887.3347960559361 1010.808828467056,872.2034720830267 1046,874 C 1081.191171532944,875.7965279169733 1147.1519419408112,894.5209077238299 1175,905 C 1202.8480580591888,915.4790922761701 1192.583403769699,917.7128970216535 1227,921 C 1261.416596230301,924.2871029783465 1340.514442980392,928.6275041895568 1378,922 C 1415.485557019608,915.3724958104432 1411.3588243087327,897.7770862201188 1431,903 C 1450.6411756912673,908.2229137798812 1494.0502597846767,936.2641509299681 1523,932 C 1551.9497402153233,927.7358490700319 1566.4401365525607,891.1663100600086 1598,890 C 1629.5598634474393,888.8336899399914 1678.18919400508,923.0706088299975 1715,928 C 1751.81080599492,932.9293911700025 1776.80308742712,908.5512546200007 1809,899 C 1841.19691257288,889.4487453799993 1880.59845628644,894.7243726899997 1920,900 C 1920,900 1920,1080 1920,1080 Z" fill="#454a97" opacity="0.49999999999999994"/><path d="M 0,1080 C 0,1080 0,990 0,990 C 43.07758551721193,991.1568255105443 86.15517103442386,992.3136510210886 115,982 C 143.84482896557614,971.6863489789114 158.45690137951652,949.9022214261901 181,957 C 203.54309862048348,964.0977785738099 234.01722344751016,1000.0774632741509 262,1016 C 289.98277655248984,1031.922536725849 315.4742048304429,1027.7879254772067 354,1011 C 392.5257951695571,994.2120745227933 444.08595723071835,964.7708348170225 478,956 C 511.91404276928165,947.2291651829775 528.1819662466838,959.1287352547032 567,974 C 605.8180337533162,988.8712647452968 667.1861777825463,1006.7142241641652 698,1004 C 728.8138222174537,1001.2857758358348 729.0733226231308,978.0143680886358 757,972 C 784.9266773768692,965.9856319113642 840.5205317249305,977.2283034812908 879,987 C 917.4794682750695,996.7716965187092 938.8445504771472,1005.0724179862011 956,1002 C 973.1554495228528,998.9275820137989 986.101266366481,984.4820245739049 1024,982 C 1061.898733633519,979.5179754260951 1124.7503840569293,988.9994837181789 1167,985 C 1209.2496159430707,981.0005162818211 1230.897197405801,963.5200405533794 1264,972 C 1297.102802594199,980.4799594466206 1341.6608263198657,1014.9203540683029 1375,1013 C 1408.3391736801343,1011.0796459316971 1430.4594973147362,972.7985431734081 1446,959 C 1461.5405026852638,945.2014568265919 1470.5011844211895,955.8854732380645 1514,961 C 1557.4988155788105,966.1145267619355 1635.5357650005058,965.6595638743332 1663,967 C 1690.4642349994942,968.3404361256668 1667.3557555767866,971.4762712646026 1693,969 C 1718.6442444232134,966.5237287353974 1793.0412126923463,958.4353510672563 1839,961 C 1884.9587873076537,963.5646489327437 1902.4793936538267,976.7823244663718 1920,990 C 1920,990 1920,1080 1920,1080 Z" fill="#454a97" opacity="0.5499999999999999"/></svg>